<?xml version="1.0" encoding="utf-8"?>
<!-- Generator: Adobe Illustrator 19.2.1, SVG Export Plug-In . SVG Version: 6.00 Build 0)  -->
<svg version="1.1" id="Ebene_1" xmlns="http://www.w3.org/2000/svg" xmlns:xlink="http://www.w3.org/1999/xlink" x="0px" y="0px"
	 viewBox="0 0 26 26" style="enable-background:new 0 0 26 26;" xml:space="preserve">
<style type="text/css">
	.st0{fill:#1D1D1B;}
</style>
<title>61F1DC04-E420-45AA-8B00-C06EE154BF13</title>
<g>
	<g>
		<path class="st0" d="M13,2.5c5.8,0,10.5,4.7,10.5,10.5S18.8,23.5,13,23.5S2.5,18.8,2.5,13S7.2,2.5,13,2.5 M13,0C5.8,0,0,5.8,0,13
			s5.8,13,13,13s13-5.8,13-13S20.2,0,13,0L13,0z"/>
	</g>
	<g>
		<path class="st0" d="M13.4,5.4c3.9,0.3,7.1,3.6,7.1,7.6s-3.1,7.3-7.1,7.6V5.4z"/>
		<path class="st0" d="M13.9,6c3.4,0.5,6.1,3.4,6.1,7s-2.6,6.5-6.1,7V6 M12.9,4.9v16.2c4.5,0,8.1-3.6,8.1-8.1S17.3,4.9,12.9,4.9
			L12.9,4.9z"/>
	</g>
</g>
</svg>
