<?xml version="1.0" encoding="utf-8"?>
<!-- Generator: Adobe Illustrator 19.2.1, SVG Export Plug-In . SVG Version: 6.00 Build 0)  -->
<svg version="1.1" id="Ebene_1" xmlns="http://www.w3.org/2000/svg" xmlns:xlink="http://www.w3.org/1999/xlink" x="0px" y="0px"
	 viewBox="0 0 190 190" style="enable-background:new 0 0 190 190;" xml:space="preserve">
<g>
	<path d="M58.5,183.9c-1.1,5-1.7,5.8-5.8,5.8H24.7c-3.6,0-5.2-0.6-5.5-2.5c0-1.4,0.8-3.6,1.1-4.7L74.8,4.4c1.1-3.6,1.4-4.1,6.1-4.1
		h28.8c4.2,0,4.7,1.1,5.8,4.4l54.2,178.4c0.3,1.1,1.1,3.3,1.1,4.4c0,1.7-2.8,2.2-5.5,2.2h-31c-2.8,0-3.3-0.8-4.7-5.8l-12.2-44.8
		H69.8L58.5,183.9z M99.2,66.6c-2.5-10.8-4.7-27.1-6.1-38.7h-0.6c-1.1,11.6-3.6,27.7-6.4,38.7L74,114.2h36.5L99.2,66.6z"/>
</g>
</svg>
