<?xml version="1.0" encoding="utf-8"?>
<!-- Generator: Adobe Illustrator 19.2.1, SVG Export Plug-In . SVG Version: 6.00 Build 0)  -->
<svg version="1.1" id="Ebene_1" xmlns="http://www.w3.org/2000/svg" xmlns:xlink="http://www.w3.org/1999/xlink" x="0px" y="0px"
	 viewBox="0 0 20 20" style="enable-background:new 0 0 20 20;" xml:space="preserve">
<title>twitter</title>
<desc>Created with Sketch.</desc>
<g id="Styleguide">
	<g id="Styleguide01" transform="translate(-422.000000, -6761.000000)">
		<g id="twitter" transform="translate(422.000000, 6761.000000)">
			<path d="M20,3.8c-0.8,0.3-1.5,0.5-2.3,0.7c0.9-0.5,1.5-1.3,1.8-2.3c-0.8,0.5-1.7,0.8-2.6,1c-0.8-0.8-1.8-1.2-3-1.3
				c-1.1,0-2.1,0.4-2.9,1.2S9.8,4.8,9.7,6c0,0.3,0,0.6,0.1,0.9C8.1,6.8,6.5,6.4,5.1,5.6c-1.5-0.8-2.7-1.7-3.7-3
				C1,3.3,0.9,3.9,0.9,4.6c0,0.8,0.2,1.4,0.5,2s0.8,1.1,1.3,1.4C2,8,1.3,7.9,0.8,7.6v0c0,1,0.3,1.9,0.9,2.6c0.6,0.8,1.4,1.2,2.3,1.4
				c-0.3,0.1-0.7,0.1-1.1,0.1c-0.3,0-0.5,0-0.8-0.1c0.3,0.8,0.8,1.5,1.4,2c0.7,0.5,1.5,0.8,2.4,0.8c-0.7,0.6-1.5,1-2.3,1.3
				c-0.9,0.3-1.8,0.4-2.7,0.4c-0.3,0-0.7,0-1,0c0.9,0.6,1.9,1,3,1.3C4,17.8,5.1,18,6.3,18c3.8-0.1,6.7-1.4,8.7-3.8c2-2.4,3-5,3-7.8
				l0-0.5C18.7,5.4,19.4,4.6,20,3.8z"/>
		</g>
	</g>
</g>
</svg>
