<?xml version="1.0" encoding="utf-8"?>
<!-- Generator: Adobe Illustrator 19.2.1, SVG Export Plug-In . SVG Version: 6.00 Build 0)  -->
<svg version="1.1" id="Ebene_1" xmlns="http://www.w3.org/2000/svg" xmlns:xlink="http://www.w3.org/1999/xlink" x="0px" y="0px"
	 viewBox="0 0 20 20" style="enable-background:new 0 0 20 20;" xml:space="preserve">
<title>facebook</title>
<desc>Created with Sketch.</desc>
<g id="Glossar">
	<g id="Footer" transform="translate(-998.000000, -3906.000000)">
		<g transform="translate(0.000000, 3575.000000)">
			<g id="Group-3" transform="translate(998.000000, 329.000000)">
				<path id="facebook" d="M17,4v3h-2c-0.6,0-1,0.4-1,1v2h3v3h-3v7h-3v-7H9v-3h2V7.5C11,5.6,12.6,4,14.5,4H17z M18,2H2
					C0.9,2,0,2.9,0,4v16c0,1.1,0.9,2,2,2h16c1.1,0,2-0.9,2-2V4C20,2.9,19.1,2,18,2L18,2z"/>
			</g>
		</g>
	</g>
</g>
</svg>
