<?xml version="1.0" encoding="UTF-8" standalone="no"?>
<!DOCTYPE svg PUBLIC "-//W3C//DTD SVG 1.1//EN" "http://www.w3.org/Graphics/SVG/1.1/DTD/svg11.dtd">
<svg width="100%" height="100%" viewBox="0 0 60 60" version="1.1" xmlns="http://www.w3.org/2000/svg" xmlns:xlink="http://www.w3.org/1999/xlink" xml:space="preserve" style="fill-rule:evenodd;clip-rule:evenodd;stroke-linejoin:round;stroke-miterlimit:1.41421;">
    <rect x="0" y="0" width="60" height="60" style="fill:rgb(45,75,141);"/>
    <g transform="matrix(1,0,0,1,15.5,15.5)">
        <path d="M14.5,12.237L25.969,0.769C26.051,0.693 26.069,0.671 26.16,0.606C26.329,0.482 26.523,0.393 26.726,0.344C26.851,0.314 26.973,0.305 27.1,0.3C27.142,0.302 27.184,0.303 27.226,0.305C27.336,0.318 27.365,0.318 27.474,0.344C27.636,0.383 27.793,0.448 27.936,0.536C28.406,0.824 28.7,1.348 28.7,1.9C28.7,2.068 28.673,2.235 28.622,2.394C28.57,2.554 28.493,2.705 28.394,2.84C28.329,2.931 28.307,2.949 28.231,3.031L16.763,14.5L28.231,25.969C28.307,26.051 28.329,26.069 28.394,26.16C28.493,26.295 28.57,26.446 28.622,26.606C28.779,27.089 28.693,27.63 28.394,28.04C28.296,28.176 28.176,28.296 28.04,28.394C27.905,28.493 27.754,28.57 27.594,28.622C27.435,28.673 27.268,28.7 27.1,28.7C26.806,28.7 26.514,28.618 26.264,28.464C26.155,28.398 26.062,28.318 25.969,28.231L14.5,16.763L3.031,28.231C2.949,28.307 2.931,28.329 2.84,28.394C2.705,28.493 2.554,28.57 2.394,28.622C1.911,28.779 1.37,28.693 0.96,28.394C0.824,28.296 0.704,28.176 0.606,28.04C0.507,27.905 0.43,27.754 0.378,27.594C0.327,27.435 0.3,27.268 0.3,27.1C0.3,26.806 0.382,26.514 0.536,26.264C0.602,26.155 0.682,26.062 0.769,25.969L12.237,14.5L0.769,3.031C0.693,2.949 0.671,2.931 0.606,2.84C0.482,2.671 0.393,2.477 0.344,2.274C0.305,2.111 0.292,1.942 0.305,1.774C0.348,1.225 0.682,0.725 1.174,0.474C1.323,0.398 1.484,0.346 1.65,0.32C1.76,0.302 1.789,0.304 1.9,0.3C1.942,0.302 1.984,0.303 2.026,0.305C2.152,0.32 2.273,0.339 2.394,0.378C2.554,0.43 2.705,0.507 2.84,0.606C2.931,0.671 2.949,0.693 3.031,0.769L14.5,12.237Z" style="fill:white;"/>
    </g>
</svg>
