<?xml version="1.0" encoding="UTF-8" standalone="no"?>
<!DOCTYPE svg PUBLIC "-//W3C//DTD SVG 1.1//EN" "http://www.w3.org/Graphics/SVG/1.1/DTD/svg11.dtd">
<svg width="100%" height="100%" viewBox="0 0 107 33" version="1.1" xmlns="http://www.w3.org/2000/svg" xmlns:xlink="http://www.w3.org/1999/xlink" xml:space="preserve" style="fill-rule:evenodd;clip-rule:evenodd;stroke-linejoin:round;stroke-miterlimit:1.41421;">
    <g transform="matrix(0.775868,0,0,0.565165,0,0)">
        <rect x="0" y="0" width="137.91" height="58.39" style="fill:white;"/>
    </g>
    <g transform="matrix(0.922921,0,0,0.926034,-10.1244,-10.5071)">
        <path d="M53.75,13.58C53.7,13.69 53.7,13.75 53.6,13.75C53.532,13.743 53.466,13.719 53.41,13.68C52.891,13.394 52.312,13.233 51.72,13.21C51.666,13.203 51.612,13.199 51.558,13.199C50.872,13.199 50.308,13.764 50.308,14.449C50.308,14.473 50.309,14.497 50.31,14.52C50.31,15.92 52.05,16.17 53.12,17.05C53.801,17.526 54.205,18.309 54.2,19.14C54.2,19.154 54.2,19.167 54.2,19.181C54.2,20.597 53.036,21.761 51.62,21.761C51.54,21.761 51.46,21.757 51.38,21.75C50.546,21.718 49.731,21.492 49,21.09C48.935,21.069 48.891,21.008 48.89,20.94C48.903,20.885 48.919,20.832 48.94,20.78L49.11,20.34C49.11,20.23 49.18,20.17 49.26,20.17C49.328,20.176 49.394,20.2 49.45,20.24C50.067,20.572 50.75,20.763 51.45,20.8C51.484,20.802 51.518,20.804 51.552,20.804C52.347,20.804 53.002,20.149 53.002,19.354C53.002,19.329 53.001,19.305 53,19.28C53,17.07 49.11,17.4 49.11,14.65C49.138,13.331 50.23,12.261 51.549,12.261C51.62,12.261 51.69,12.264 51.76,12.27C52.495,12.29 53.216,12.485 53.86,12.84C53.932,12.864 53.986,12.925 54,13C53.988,13.055 53.971,13.108 53.95,13.16L53.75,13.58Z" style="fill:rgb(45,75,141);fill-rule:nonzero;"/>
    </g>
    <g transform="matrix(0.922921,0,0,0.926034,-10.1244,-10.5071)">
        <path d="M58.13,13.38L58.13,21.38C58.131,21.387 58.132,21.394 58.132,21.402C58.132,21.478 58.068,21.542 57.992,21.542C57.984,21.542 57.977,21.541 57.97,21.54L57.2,21.54C57.181,21.549 57.161,21.554 57.14,21.554C57.063,21.554 57,21.49 57,21.414C57,21.412 57,21.411 57,21.41L57,13.41L55,13.41C54.993,13.411 54.986,13.412 54.978,13.412C54.902,13.412 54.838,13.348 54.838,13.272C54.838,13.264 54.839,13.257 54.84,13.25L54.84,12.65C54.84,12.646 54.839,12.641 54.839,12.637C54.839,12.549 54.912,12.477 54.999,12.477C55.01,12.477 55.02,12.478 55.03,12.48L60.3,12.48C60.39,12.48 60.46,12.48 60.46,12.59C60.447,12.648 60.431,12.705 60.41,12.76L60.22,13.27C60.193,13.362 60.106,13.424 60.01,13.42L58.13,13.42L58.13,13.38Z" style="fill:rgb(45,75,141);fill-rule:nonzero;"/>
    </g>
    <g transform="matrix(0.922921,0,0,0.926034,-10.1244,-10.5071)">
        <path d="M65.25,21.41C65.251,21.417 65.252,21.424 65.252,21.432C65.252,21.508 65.188,21.572 65.112,21.572C65.104,21.572 65.097,21.571 65.09,21.57L61.58,21.57C61.573,21.571 61.566,21.572 61.558,21.572C61.482,21.572 61.418,21.508 61.418,21.432C61.418,21.424 61.419,21.417 61.42,21.41L61.42,20.87C61.419,20.863 61.418,20.856 61.418,20.848C61.418,20.772 61.482,20.708 61.558,20.708C61.566,20.708 61.573,20.709 61.58,20.71L62.79,20.71L62.79,13.32L61.58,13.32C61.573,13.321 61.566,13.322 61.558,13.322C61.482,13.322 61.418,13.258 61.418,13.182C61.418,13.174 61.419,13.167 61.42,13.16L61.42,12.61C61.419,12.603 61.418,12.596 61.418,12.588C61.418,12.512 61.482,12.448 61.558,12.448C61.566,12.448 61.573,12.449 61.58,12.45L65.1,12.45C65.107,12.449 65.114,12.448 65.122,12.448C65.198,12.448 65.262,12.512 65.262,12.588C65.262,12.596 65.261,12.603 65.26,12.61L65.26,13.16C65.261,13.167 65.262,13.174 65.262,13.182C65.262,13.258 65.198,13.322 65.122,13.322C65.114,13.322 65.107,13.321 65.1,13.32L63.88,13.32L63.88,20.71L65.09,20.71C65.097,20.709 65.104,20.708 65.112,20.708C65.188,20.708 65.252,20.772 65.252,20.848C65.252,20.856 65.251,20.863 65.25,20.87L65.25,21.42L65.25,21.41Z" style="fill:rgb(45,75,141);fill-rule:nonzero;"/>
    </g>
    <g transform="matrix(0.922921,0,0,0.926034,-10.1244,-10.5071)">
        <path d="M67.87,21.39C67.87,21.55 67.87,21.58 67.68,21.58L66.94,21.58C66.933,21.581 66.926,21.582 66.918,21.582C66.842,21.582 66.778,21.518 66.778,21.442C66.778,21.434 66.779,21.427 66.78,21.42L66.78,12.62C66.779,12.613 66.778,12.606 66.778,12.598C66.778,12.522 66.842,12.458 66.918,12.458C66.926,12.458 66.933,12.459 66.94,12.46L71.08,12.46C71.23,12.46 71.25,12.46 71.25,12.55L71.25,12.71L71,13.26C70.988,13.297 70.963,13.329 70.93,13.35C70.888,13.364 70.842,13.364 70.8,13.35L67.8,13.35L67.8,16.35L70.41,16.35C70.56,16.35 70.58,16.35 70.58,16.52L70.58,17.1C70.58,17.25 70.58,17.27 70.41,17.27L67.87,17.27L67.87,21.39Z" style="fill:rgb(45,75,141);fill-rule:nonzero;"/>
    </g>
    <g transform="matrix(0.922921,0,0,0.926034,-10.1244,-10.5071)">
        <path d="M75.37,13.38L75.37,21.38C75.371,21.387 75.372,21.394 75.372,21.402C75.372,21.478 75.308,21.542 75.232,21.542C75.224,21.542 75.217,21.541 75.21,21.54L74.44,21.54C74.433,21.541 74.426,21.542 74.418,21.542C74.342,21.542 74.278,21.478 74.278,21.402C74.278,21.394 74.279,21.387 74.28,21.38L74.28,13.38L72.28,13.38C72.273,13.381 72.266,13.382 72.258,13.382C72.182,13.382 72.118,13.318 72.118,13.242C72.118,13.234 72.119,13.227 72.12,13.22L72.12,12.62C72.12,12.616 72.119,12.611 72.119,12.607C72.119,12.519 72.192,12.447 72.279,12.447C72.29,12.447 72.3,12.448 72.31,12.45L77.53,12.45C77.62,12.45 77.69,12.45 77.69,12.56C77.677,12.618 77.661,12.675 77.64,12.73L77.45,13.24C77.423,13.332 77.336,13.394 77.24,13.39L75.37,13.39L75.37,13.38Z" style="fill:rgb(45,75,141);fill-rule:nonzero;"/>
    </g>
    <g transform="matrix(0.922921,0,0,0.926034,-10.1244,-10.5071)">
        <path d="M84.35,19.12C84.35,20.72 83.46,21.76 81.42,21.76C79.38,21.76 78.66,20.76 78.66,19.12L78.66,12.61C78.659,12.603 78.658,12.596 78.658,12.588C78.658,12.512 78.722,12.448 78.798,12.448C78.806,12.448 78.813,12.449 78.82,12.45L79.6,12.45C79.607,12.449 79.614,12.448 79.622,12.448C79.698,12.448 79.762,12.512 79.762,12.588C79.762,12.596 79.761,12.603 79.76,12.61L79.76,19.1C79.743,19.19 79.735,19.281 79.735,19.373C79.735,20.201 80.417,20.883 81.245,20.883C81.31,20.883 81.375,20.878 81.44,20.87C81.528,20.885 81.617,20.893 81.706,20.893C82.567,20.893 83.276,20.184 83.276,19.323C83.276,19.248 83.271,19.174 83.26,19.1L83.26,12.61C83.259,12.603 83.258,12.596 83.258,12.588C83.258,12.512 83.322,12.448 83.398,12.448C83.406,12.448 83.413,12.449 83.42,12.45L84.19,12.45C84.197,12.449 84.204,12.448 84.212,12.448C84.288,12.448 84.352,12.512 84.352,12.588C84.352,12.596 84.351,12.603 84.35,12.61L84.35,19.12Z" style="fill:rgb(45,75,141);fill-rule:nonzero;"/>
    </g>
    <g transform="matrix(0.922921,0,0,0.926034,-10.1244,-10.5071)">
        <path d="M91.69,21.41C91.69,21.413 91.69,21.417 91.69,21.42C91.69,21.503 91.623,21.57 91.54,21.57C91.537,21.57 91.533,21.57 91.53,21.57L90.78,21.57C90.69,21.574 90.607,21.522 90.57,21.44L87.5,14.86C87.334,14.489 87.213,14.1 87.14,13.7C87.225,14.088 87.268,14.483 87.27,14.88L87.27,21.38C87.271,21.387 87.272,21.394 87.272,21.402C87.272,21.478 87.208,21.542 87.132,21.542C87.124,21.542 87.117,21.541 87.11,21.54L86.4,21.54C86.393,21.541 86.386,21.542 86.378,21.542C86.302,21.542 86.238,21.478 86.238,21.402C86.238,21.394 86.239,21.387 86.24,21.38L86.24,12.58C86.24,12.577 86.24,12.573 86.24,12.57C86.24,12.487 86.307,12.42 86.39,12.42C86.393,12.42 86.397,12.42 86.4,12.42L87.3,12.42C87.386,12.41 87.469,12.459 87.5,12.54L90.44,18.74C90.572,19.065 90.679,19.399 90.76,19.74C90.716,19.495 90.686,19.248 90.67,19L90.67,12.61C90.669,12.603 90.668,12.596 90.668,12.588C90.668,12.512 90.732,12.448 90.808,12.448C90.816,12.448 90.823,12.449 90.83,12.45L91.52,12.45C91.527,12.449 91.534,12.448 91.542,12.448C91.618,12.448 91.682,12.512 91.682,12.588C91.682,12.596 91.681,12.603 91.68,12.61L91.68,21.41L91.69,21.41Z" style="fill:rgb(45,75,141);fill-rule:nonzero;"/>
    </g>
    <g transform="matrix(0.922921,0,0,0.926034,-10.1244,-10.5071)">
        <path d="M99,20.68C99,21.03 99,21.13 98.81,21.24C98.138,21.571 97.398,21.738 96.65,21.73C94.29,21.73 93.45,19.65 93.45,16.9C93.45,14.37 94.33,12.24 96.67,12.24C97.488,12.182 98.293,12.477 98.88,13.05C98.87,13.111 98.846,13.169 98.81,13.22L98.61,13.59C98.589,13.678 98.525,13.749 98.44,13.78C97.938,13.395 97.332,13.169 96.7,13.13C95.23,13.13 94.65,14.52 94.65,16.77C94.65,19.23 95.22,20.84 96.65,20.84C97.071,20.854 97.489,20.768 97.87,20.59L97.87,17.79L96.88,17.79C96.873,17.791 96.866,17.792 96.858,17.792C96.782,17.792 96.718,17.728 96.718,17.652C96.718,17.644 96.719,17.637 96.72,17.63L96.72,17.08C96.719,17.073 96.718,17.066 96.718,17.058C96.718,16.982 96.782,16.918 96.858,16.918C96.866,16.918 96.873,16.919 96.88,16.92L98.88,16.92C98.887,16.919 98.894,16.918 98.902,16.918C98.978,16.918 99.042,16.982 99.042,17.058C99.042,17.066 99.041,17.073 99.04,17.08L99.04,20.68L99,20.68Z" style="fill:rgb(45,75,141);fill-rule:nonzero;"/>
    </g>
    <g transform="matrix(0.922921,0,0,0.926034,-10.1244,-10.5071)">
        <path d="M55.14,32.94C55.14,33.5 53.57,33.94 52.48,33.94C50.14,33.94 48.91,32.42 48.91,29.2C48.91,25.98 50.12,24.37 52.51,24.37C53.408,24.322 54.293,24.611 54.99,25.18C54.982,25.251 54.958,25.32 54.92,25.38L54.48,26.26C54.457,26.327 54.399,26.376 54.33,26.39C53.809,26.057 53.216,25.854 52.6,25.8C51.24,25.8 50.8,27.07 50.8,29.1C50.8,31.13 51.15,32.5 52.58,32.5C52.925,32.507 53.267,32.435 53.58,32.29L53.58,30.39L52.58,30.39C52.35,30.39 52.3,30.39 52.3,30.11L52.3,29.23C52.3,28.99 52.35,28.95 52.58,28.95L54.9,28.95C55.13,28.95 55.18,28.95 55.18,29.23L55.18,32.93L55.14,32.94Z" style="fill:rgb(45,75,141);fill-rule:nonzero;"/>
    </g>
    <g transform="matrix(0.922921,0,0,0.926034,-10.1244,-10.5071)">
        <path d="M61.9,33.47C61.9,33.71 61.9,33.75 61.63,33.75L57.26,33.75C57.03,33.75 56.98,33.75 56.98,33.47L56.98,24.91C56.98,24.67 57.03,24.63 57.26,24.63L61.63,24.63C61.9,24.63 61.96,24.63 61.96,24.78C61.971,24.843 61.971,24.907 61.96,24.97L61.71,25.86C61.68,26.001 61.542,26.095 61.4,26.07L58.77,26.07L58.77,28.27L61,28.27C61.24,28.27 61.28,28.27 61.28,28.55L61.28,29.43C61.28,29.67 61.23,29.71 61,29.71L58.77,29.71L58.77,32.32L61.62,32.32C61.86,32.32 61.9,32.32 61.9,32.6L61.9,33.48L61.9,33.47Z" style="fill:rgb(45,75,141);fill-rule:nonzero;"/>
    </g>
    <g transform="matrix(0.922921,0,0,0.926034,-10.1244,-10.5071)">
        <path d="M68.08,26.29C68.057,26.357 67.999,26.406 67.93,26.42C67.362,26.086 66.726,25.885 66.07,25.83C66.01,25.82 65.949,25.815 65.889,25.815C65.322,25.815 64.849,26.264 64.82,26.83C64.82,27.83 66.38,28.03 67.55,28.89C68.276,29.393 68.704,30.227 68.69,31.11C68.694,31.172 68.696,31.233 68.696,31.295C68.696,32.782 67.473,34.005 65.986,34.005C65.931,34.005 65.875,34.003 65.82,34C64.83,34.05 63.852,33.769 63.04,33.2C63.054,33.132 63.075,33.065 63.1,33L63.41,32.12C63.431,32.057 63.485,32.011 63.55,32C64.239,32.343 64.991,32.544 65.76,32.59C65.816,32.599 65.872,32.603 65.929,32.603C66.527,32.603 67.019,32.111 67.019,31.513C67.019,31.445 67.013,31.377 67,31.31C67,30.13 65.64,30 64.28,29.18C63.516,28.789 63.058,27.976 63.12,27.12C63.119,27.086 63.118,27.052 63.118,27.018C63.118,25.575 64.305,24.388 65.748,24.388C65.832,24.388 65.916,24.392 66,24.4C67.26,24.4 68.57,24.99 68.57,25.21C68.563,25.281 68.539,25.35 68.5,25.41L68.08,26.29Z" style="fill:rgb(45,75,141);fill-rule:nonzero;"/>
    </g>
    <g transform="matrix(0.922921,0,0,0.926034,-10.1244,-10.5071)">
        <path d="M76.57,30.66C76.57,32.66 75.88,33.98 73.36,33.98C70.84,33.98 70.15,32.65 70.15,30.66L70.15,24.91C70.15,24.67 70.2,24.63 70.43,24.63L71.67,24.63C71.9,24.63 71.95,24.63 71.95,24.91L71.95,30.66C71.95,31.66 72.02,32.54 73.36,32.54C74.7,32.54 74.77,31.62 74.77,30.66L74.77,24.91C74.77,24.67 74.82,24.63 75.05,24.63L76.29,24.63C76.52,24.63 76.57,24.63 76.57,24.91L76.57,30.66Z" style="fill:rgb(45,75,141);fill-rule:nonzero;"/>
    </g>
    <g transform="matrix(0.922921,0,0,0.926034,-10.1244,-10.5071)">
        <path d="M84.64,33.47C84.64,33.71 84.64,33.75 84.36,33.75L83.48,33.75C83.343,33.781 83.204,33.696 83.17,33.56L80.74,29C80.409,28.442 80.16,27.839 80,27.21L80,33.47C80,33.71 79.95,33.75 79.72,33.75L78.72,33.75C78.49,33.75 78.44,33.75 78.44,33.47L78.44,24.91C78.44,24.67 78.49,24.63 78.72,24.63L79.81,24.63C79.941,24.597 80.077,24.672 80.12,24.8L82.32,28.93C82.644,29.546 82.905,30.192 83.1,30.86C83.1,30.43 83.1,29.5 83.1,29.13L83.1,24.91C83.1,24.67 83.15,24.63 83.38,24.63L84.38,24.63C84.61,24.63 84.66,24.63 84.66,24.91L84.66,33.47L84.64,33.47Z" style="fill:rgb(45,75,141);fill-rule:nonzero;"/>
    </g>
    <g transform="matrix(0.922921,0,0,0.926034,-10.1244,-10.5071)">
        <path d="M89,24.63C91.54,24.63 92.87,25.46 92.87,29.14C92.87,32.82 91.36,33.75 89,33.75L87,33.75C86.77,33.75 86.72,33.7 86.72,33.47L86.72,24.91C86.72,24.67 86.77,24.63 87.01,24.63L89,24.63ZM88.92,32.31C90.42,32.31 90.98,31.66 90.98,29.11C90.98,26.73 90.41,26.11 88.92,26.11L88.47,26.11L88.47,32.36L88.95,32.36L88.92,32.31Z" style="fill:rgb(45,75,141);fill-rule:nonzero;"/>
    </g>
    <g transform="matrix(0.922921,0,0,0.926034,-10.1244,-10.5071)">
        <path d="M100.76,33.47C100.76,33.71 100.71,33.75 100.48,33.75L99.24,33.75C99.01,33.75 98.96,33.75 98.96,33.47L98.96,29.75L96.43,29.75L96.43,33.47C96.43,33.71 96.38,33.75 96.15,33.75L94.91,33.75C94.68,33.75 94.63,33.75 94.63,33.47L94.63,24.91C94.63,24.67 94.68,24.63 94.91,24.63L96.15,24.63C96.38,24.63 96.43,24.63 96.43,24.91L96.43,28.32L99,28.32L99,24.91C99,24.67 99.05,24.63 99.28,24.63L100.52,24.63C100.75,24.63 100.8,24.63 100.8,24.91L100.8,33.47L100.76,33.47Z" style="fill:rgb(45,75,141);fill-rule:nonzero;"/>
    </g>
    <g transform="matrix(0.922921,0,0,0.926034,-10.1244,-10.5071)">
        <path d="M107.69,33.47C107.69,33.71 107.69,33.75 107.42,33.75L103,33.75C102.77,33.75 102.72,33.75 102.72,33.47L102.72,24.91C102.72,24.67 102.77,24.63 103,24.63L107.37,24.63C107.64,24.63 107.7,24.63 107.7,24.78C107.711,24.843 107.711,24.907 107.7,24.97L107.45,25.86C107.42,26.001 107.282,26.095 107.14,26.07L104.56,26.07L104.56,28.27L106.82,28.27C107.06,28.27 107.1,28.27 107.1,28.55L107.1,29.43C107.1,29.67 107.05,29.71 106.82,29.71L104.56,29.71L104.56,32.32L107.41,32.32C107.65,32.32 107.69,32.32 107.69,32.6L107.69,33.48L107.69,33.47Z" style="fill:rgb(45,75,141);fill-rule:nonzero;"/>
    </g>
    <g transform="matrix(0.922921,0,0,0.926034,-10.1244,-10.5071)">
        <path d="M112.65,33.47C112.65,33.71 112.6,33.75 112.37,33.75L109.11,33.75C108.88,33.75 108.83,33.75 108.83,33.47L108.83,32.75C108.83,32.51 108.88,32.47 109.11,32.47L109.84,32.47L109.84,25.91L109.11,25.91C108.88,25.91 108.83,25.91 108.83,25.63L108.83,24.91C108.83,24.67 108.88,24.63 109.11,24.63L112.37,24.63C112.6,24.63 112.65,24.63 112.65,24.91L112.65,25.63C112.65,25.87 112.6,25.91 112.37,25.91L111.64,25.91L111.64,32.47L112.37,32.47C112.6,32.47 112.65,32.47 112.65,32.75L112.65,33.47Z" style="fill:rgb(45,75,141);fill-rule:nonzero;"/>
    </g>
    <g transform="matrix(0.922921,0,0,0.926034,-10.1244,-10.5071)">
        <path d="M117.41,33.47C117.41,33.71 117.36,33.75 117.13,33.75L115.89,33.75C115.66,33.75 115.61,33.75 115.61,33.47L115.61,26.22L113.87,26.22C113.68,26.22 113.64,26.22 113.64,25.99L113.64,24.85C113.64,24.66 113.64,24.62 113.87,24.62L119.36,24.62C119.63,24.62 119.69,24.62 119.69,24.77C119.7,24.833 119.7,24.897 119.69,24.96L119.36,26C119.339,26.124 119.23,26.216 119.104,26.216C119.086,26.216 119.068,26.214 119.05,26.21L117.4,26.21L117.4,33.45L117.41,33.47Z" style="fill:rgb(45,75,141);fill-rule:nonzero;"/>
    </g>
    <g transform="matrix(0.922921,0,0,0.926034,-10.1244,-10.5071)">
        <path d="M125,26.29C124.977,26.357 124.919,26.406 124.85,26.42C124.282,26.086 123.646,25.885 122.99,25.83C122.93,25.82 122.869,25.815 122.809,25.815C122.242,25.815 121.769,26.264 121.74,26.83C121.74,27.83 123.3,28.03 124.47,28.89C125.196,29.393 125.624,30.227 125.61,31.11C125.614,31.171 125.616,31.232 125.616,31.293C125.616,32.78 124.393,34.003 122.906,34.003C122.861,34.003 122.815,34.002 122.77,34C121.78,34.05 120.802,33.769 119.99,33.2C120.007,33.128 120.031,33.058 120.06,32.99L120.37,32.11C120.389,32.041 120.449,31.989 120.52,31.98C121.209,32.323 121.961,32.524 122.73,32.57C122.77,32.574 122.81,32.577 122.85,32.577C123.448,32.577 123.94,32.085 123.94,31.487C123.94,31.438 123.937,31.389 123.93,31.34C123.93,30.16 122.57,30.03 121.21,29.21C120.416,28.83 119.934,27.998 120,27.12C119.998,27.077 119.997,27.035 119.997,26.992C119.997,25.555 121.18,24.372 122.617,24.372C122.745,24.372 122.873,24.381 123,24.4C124.26,24.4 125.57,24.99 125.57,25.21C125.563,25.281 125.539,25.35 125.5,25.41L125,26.29Z" style="fill:rgb(45,75,141);fill-rule:nonzero;"/>
    </g>
    <g transform="matrix(0.922921,0,0,0.926034,-10.1244,-10.5071)">
        <path d="M41.74,29.73C41.137,29.73 40.64,29.233 40.64,28.63L40.64,17.42C40.64,16.817 41.137,16.32 41.74,16.32C42.343,16.32 42.84,16.817 42.84,17.42L42.84,28.63C42.84,29.233 42.343,29.73 41.74,29.73L41.74,29.73Z" style="fill:rgb(145,206,241);fill-rule:nonzero;"/>
    </g>
    <g transform="matrix(0.922921,0,0,0.926034,-10.1244,-10.5071)">
        <path d="M22.44,46.06C21.968,46.034 21.564,45.706 21.44,45.25L18.2,33.7L13.36,33.7C12.757,33.7 12.26,33.203 12.26,32.6C12.26,31.997 12.757,31.5 13.36,31.5L19,31.5C19.494,31.5 19.93,31.834 20.06,32.31L22.5,41L28.2,22.34C28.334,21.896 28.736,21.582 29.2,21.56C29.677,21.545 30.11,21.847 30.26,22.3L33.41,31.5L41.7,31.5C42.303,31.5 42.8,31.997 42.8,32.6C42.8,33.203 42.303,33.7 41.7,33.7C41.7,33.7 32.66,33.7 32.66,33.7C32.207,33.684 31.808,33.389 31.66,32.96L29.35,26.23L23.49,45.28C23.35,45.741 22.922,46.059 22.44,46.06Z" style="fill:rgb(234,81,76);fill-rule:nonzero;"/>
    </g>
    <g transform="matrix(0.922921,0,0,0.926034,-10.1244,-10.5071)">
        <path d="M13.36,29.73C12.757,29.73 12.26,29.233 12.26,28.63L12.26,13.42C12.26,12.817 12.757,12.32 13.36,12.32L41.74,12.32C42.343,12.32 42.84,12.817 42.84,13.42C42.84,14.023 42.343,14.52 41.74,14.52L14.46,14.52L14.46,28.63C14.46,29.233 13.963,29.73 13.36,29.73L13.36,29.73Z" style="fill:rgb(45,75,141);fill-rule:nonzero;"/>
    </g>
    <g transform="matrix(0.922921,0,0,0.926034,-10.1244,-10.5071)">
        <path d="M63.89,45.64C63.89,45.88 63.84,45.92 63.61,45.92L60.34,45.92C60.11,45.92 60.06,45.92 60.06,45.64L60.06,44.92C60.06,44.68 60.11,44.64 60.34,44.64L61.07,44.64L61.07,38.08L60.34,38.08C60.11,38.08 60.06,38.08 60.06,37.8L60.06,37.08C60.06,36.84 60.11,36.8 60.34,36.8L63.6,36.8C63.83,36.8 63.88,36.8 63.88,37.08L63.88,37.8C63.88,38.04 63.83,38.08 63.6,38.08L62.87,38.08L62.87,44.64L63.6,44.64C63.83,44.64 63.88,44.64 63.88,44.92L63.88,45.64L63.89,45.64Z" style="fill:rgb(45,75,141);fill-rule:nonzero;"/>
    </g>
    <g transform="matrix(0.922921,0,0,0.926034,-10.1244,-10.5071)">
        <path d="M70,38.46C69.977,38.527 69.919,38.576 69.85,38.59C69.267,38.249 68.614,38.047 67.94,38C67.88,37.99 67.819,37.985 67.759,37.985C67.192,37.985 66.719,38.434 66.69,39C66.69,40 68.25,40.2 69.42,41.06C70.146,41.563 70.574,42.397 70.56,43.28C70.561,43.315 70.562,43.35 70.562,43.385C70.562,44.872 69.339,46.095 67.852,46.095C67.795,46.095 67.737,46.094 67.68,46.09C66.69,46.14 65.712,45.859 64.9,45.29C64.929,45.234 64.963,45.181 65,45.13L65.31,44.25C65.329,44.181 65.389,44.129 65.46,44.12C66.149,44.463 66.901,44.664 67.67,44.71C67.71,44.714 67.75,44.717 67.79,44.717C68.388,44.717 68.88,44.225 68.88,43.627C68.88,43.578 68.877,43.529 68.87,43.48C68.87,42.29 67.51,42.17 66.15,41.35C65.39,40.956 64.936,40.143 65,39.29C64.999,39.254 64.998,39.218 64.998,39.183C64.998,37.74 66.185,36.553 67.628,36.553C67.729,36.553 67.83,36.558 67.93,36.57C69.19,36.57 70.5,37.16 70.5,37.38C70.493,37.451 70.469,37.52 70.43,37.58L70,38.46Z" style="fill:rgb(45,75,141);fill-rule:nonzero;"/>
    </g>
    <g transform="matrix(0.922921,0,0,0.926034,-10.1244,-10.5071)">
        <path d="M76.56,38.46C76.537,38.527 76.479,38.576 76.41,38.59C75.842,38.256 75.206,38.055 74.55,38C74.49,37.99 74.429,37.985 74.369,37.985C73.802,37.985 73.329,38.434 73.3,39C73.3,40 74.86,40.2 76.03,41.06C76.756,41.563 77.184,42.397 77.17,43.28C77.171,43.315 77.172,43.35 77.172,43.385C77.172,44.872 75.949,46.095 74.462,46.095C74.405,46.095 74.347,46.094 74.29,46.09C73.3,46.14 72.322,45.859 71.51,45.29C71.527,45.218 71.551,45.148 71.58,45.08L71.89,44.2C71.915,44.16 71.954,44.131 72,44.12C72.689,44.463 73.441,44.664 74.21,44.71C74.25,44.714 74.29,44.717 74.33,44.717C74.928,44.717 75.42,44.225 75.42,43.627C75.42,43.578 75.417,43.529 75.41,43.48C75.41,42.29 74.05,42.17 72.69,41.35C71.926,40.959 71.468,40.146 71.53,39.29C71.529,39.254 71.528,39.218 71.528,39.183C71.528,37.74 72.715,36.553 74.158,36.553C74.259,36.553 74.36,36.558 74.46,36.57C75.72,36.57 77.03,37.16 77.03,37.38C77.023,37.451 76.999,37.52 76.96,37.58L76.56,38.46Z" style="fill:rgb(45,75,141);fill-rule:nonzero;"/>
    </g>
    <g transform="matrix(0.922921,0,0,0.926034,-10.1244,-10.5071)">
        <path d="M83.45,45.64C83.45,45.88 83.45,45.92 83.18,45.92L78.81,45.92C78.58,45.92 78.53,45.92 78.53,45.64L78.53,37.08C78.53,36.84 78.58,36.8 78.81,36.8L83.18,36.8C83.45,36.8 83.51,36.8 83.51,36.95C83.521,37.013 83.521,37.077 83.51,37.14L83.21,38C83.18,38.141 83.042,38.235 82.9,38.21L80.32,38.21L80.32,40.41L82.58,40.41C82.82,40.41 82.86,40.41 82.86,40.69L82.86,41.57C82.86,41.81 82.81,41.85 82.58,41.85L80.32,41.85L80.32,44.46L83.17,44.46C83.41,44.46 83.45,44.46 83.45,44.74L83.45,45.64Z" style="fill:rgb(45,75,141);fill-rule:nonzero;"/>
    </g>
    <g transform="matrix(0.922921,0,0,0.926034,-10.1244,-10.5071)">
        <path d="M91.4,45.64C91.4,45.88 91.4,45.92 91.12,45.92L90.24,45.92C90.103,45.951 89.964,45.866 89.93,45.73L87.5,41.19C87.16,40.627 86.904,40.017 86.74,39.38L86.74,45.64C86.74,45.88 86.69,45.92 86.46,45.92L85.46,45.92C85.23,45.92 85.18,45.92 85.18,45.64L85.18,37.08C85.18,36.84 85.23,36.8 85.46,36.8L86.55,36.8C86.681,36.767 86.817,36.842 86.86,36.97L89.06,41.1C89.395,41.705 89.67,42.341 89.88,43C89.88,42.57 89.88,41.64 89.88,41.27L89.88,37.08C89.88,36.84 89.93,36.8 90.16,36.8L91.16,36.8C91.39,36.8 91.44,36.8 91.44,37.08L91.44,45.64L91.4,45.64Z" style="fill:rgb(45,75,141);fill-rule:nonzero;"/>
    </g>
    <g transform="matrix(0.922921,0,0,0.926034,-10.1244,-10.5071)">
        <path d="M58.66,36.79L57.56,36.79C57.437,36.758 57.308,36.829 57.27,36.95C57.27,37.09 56.48,41.2 56.48,41.2C56.35,41.92 56.24,43.01 56.16,43.68C56.065,42.846 55.925,42.018 55.74,41.2L54.81,37.2C54.74,36.92 54.73,36.81 54.42,36.81L53.77,36.81C53.45,36.81 53.44,36.93 53.38,37.2L52.45,41.2C52.255,42.018 52.105,42.846 52,43.68C51.92,43.01 51.82,41.92 51.68,41.2C51.68,41.2 50.92,37.09 50.89,36.95C50.852,36.829 50.723,36.758 50.6,36.79L49.5,36.79C49.3,36.79 49.24,36.79 49.23,37.01L49.23,37.3L51,45.68C51,45.682 51,45.684 51,45.685C51,45.817 51.108,45.925 51.24,45.925C51.257,45.925 51.274,45.924 51.29,45.92L52.42,45.92C52.66,45.92 52.66,45.92 52.71,45.68L53.77,41.26C53.92,40.601 54.024,39.933 54.08,39.26C54.136,39.933 54.24,40.601 54.39,41.26L55.45,45.68C55.5,45.88 55.5,45.92 55.74,45.92L56.87,45.92C56.886,45.924 56.903,45.925 56.92,45.925C57.052,45.925 57.16,45.817 57.16,45.685C57.16,45.684 57.16,45.682 57.16,45.68L58.87,37.31C58.87,37.23 58.87,37.15 58.87,37.07C58.87,36.99 58.87,37.07 58.87,37.02C58.92,36.83 58.86,36.79 58.66,36.79Z" style="fill:rgb(45,75,141);fill-rule:nonzero;"/>
    </g>
</svg>
