<?xml version="1.0" encoding="UTF-8" standalone="no"?>
<svg width="125px" height="30px" viewBox="0 0 125 30" version="1.1" xmlns="http://www.w3.org/2000/svg" xmlns:xlink="http://www.w3.org/1999/xlink" xmlns:sketch="http://www.bohemiancoding.com/sketch/ns">
    <!-- Generator: Sketch 3.3.3 (12072) - http://www.bohemiancoding.com/sketch -->
    <title>Imported Layers</title>
    <desc>Created with Sketch.</desc>
    <defs></defs>
    <g id="Page-1" stroke="none" stroke-width="1" fill="none" fill-rule="evenodd" sketch:type="MSPage">
        <g id="Imported-Layers" sketch:type="MSLayerGroup" fill="#FFFFFF">
            <path d="M21.25725,18.946875 C15.397125,18.946875 10.629,14.174625 10.629,8.314125 L0,8.314125 C0.00075,20.038875 9.53625,29.57475 21.25725,29.57475 C32.980875,29.57475 42.517875,20.038875 42.517875,8.314125 L31.888875,8.314125 C31.888875,14.174625 27.12,18.946875 21.25725,18.946875" id="Fill-1" sketch:type="MSShapeGroup"></path>
            <path d="M29.231625,8.312625 C29.231625,12.714 25.66275,16.2825 21.25725,16.2825 C16.853625,16.2825 13.287,12.714 13.287,8.312625 C13.287,3.90675 16.853625,0.337875 21.25725,0.337875 C25.66275,0.337875 29.231625,3.90675 29.231625,8.312625" id="Fill-2" sketch:type="MSShapeGroup"></path>
            <path d="M64.000125,26.416125 C62.713875,28.162125 60.814875,29.32575 58.823625,29.479125 C58.0275,29.54025 57.0165,29.60175 55.760625,29.60175 L50.5845,29.60175 L50.5845,8.31375 L54.872625,8.31375 C56.09775,8.31375 57.721125,8.374875 58.57875,8.436375 C60.385875,8.589375 61.948125,9.26325 63.234375,10.5495 C65.194875,12.47925 66.144375,15.2055 66.144375,19.03425 C66.144375,21.94425 65.440125,24.486375 64.000125,26.416125 M60.26325,13.4595 C59.559,12.2955 58.57875,11.68275 56.89425,11.68275 L54.93375,11.68275 L54.93375,26.10975 L57.231,26.10975 C60.049125,26.10975 61.33575,23.93475 61.33575,19.4325 C61.33575,16.9515 61.120875,14.868375 60.26325,13.4595" id="Fill-3" sketch:type="MSShapeGroup"></path>
            <path d="M78.12075,29.846625 C74.935125,29.846625 72.57675,28.80525 70.8615,26.599875 C69.29925,24.608625 68.595,22.342125 68.595,19.1565 C68.595,14.65425 70.065,11.468625 73.0365,9.47775 C74.598375,8.436375 76.191375,7.976625 78.212625,7.976625 C80.785875,7.976625 83.1135,8.803875 84.98175,10.42725 L82.71525,13.092 C81.33675,11.95875 79.8975,11.437875 78.27375,11.437875 C77.01825,11.437875 75.94575,11.805375 75.211125,12.51 C73.7715,13.8885 73.403625,16.18575 73.403625,19.371 C73.403625,22.40325 73.9245,24.364125 74.996625,25.435875 C75.79275,26.201625 76.957125,26.630625 78.33525,26.630625 C79.28475,26.630625 80.0505,26.47725 80.755125,26.10975 L80.755125,21.270375 L77.508,21.270375 L76.957125,17.778375 L85.19625,17.778375 L85.19625,27.947625 C83.021625,29.233875 80.6325,29.846625 78.12075,29.846625" id="Fill-4" sketch:type="MSShapeGroup"></path>
            <path d="M104.095125,25.987125 C103.5435,27.671625 101.461125,30 96.866625,30 C93.6195,30 91.230375,29.01975 90.036,27.151125 C89.331375,26.048625 89.11725,25.191 89.11725,23.138625 L89.11725,8.31375 L93.496875,8.31375 L93.496875,22.31175 C93.496875,23.62875 93.6195,24.3945 93.86475,24.853875 C94.3545,25.803375 95.3655,26.323875 96.774375,26.323875 C98.643,26.323875 99.837375,25.405125 100.0215,23.84325 C100.082625,23.3835 100.082625,23.077125 100.082625,21.94425 L100.082625,8.31375 L104.431875,8.31375 L104.431875,22.6485 C104.431875,24.670125 104.401125,25.068375 104.095125,25.987125" id="Fill-5" sketch:type="MSShapeGroup"></path>
            <path d="M117.020625,29.75475 L113.130375,29.75475 L105.9015,8.31375 L110.587875,8.31375 L114.110625,19.40175 C114.416625,20.35125 114.75375,21.545625 115.0905,23.107875 C115.3665,21.790875 115.91775,20.014125 116.316,18.8505 L119.93025,8.31375 L124.432875,8.31375 L117.020625,29.75475" id="Fill-6" sketch:type="MSShapeGroup"></path>
        </g>
    </g>
</svg>