<svg id="Ebene_1" data-name="Ebene 1" xmlns="http://www.w3.org/2000/svg" viewBox="0 0 786.62 162.16"><defs><style>.cls-1{fill:#004994;}.cls-2{fill:#555;}</style></defs><title>Logo IFA RGB</title><path class="cls-1" d="M98.15,391.21a28.38,28.38,0,0,1-28.34-28.35H41.46a56.69,56.69,0,1,0,113.38,0H126.5A28.39,28.39,0,0,1,98.15,391.21Z" transform="translate(-41.46 -341.59)"/><path class="cls-1" d="M119.42,362.86a21.26,21.26,0,1,1-21.27-21.27A21.26,21.26,0,0,1,119.42,362.86Z" transform="translate(-41.46 -341.59)"/><path class="cls-2" d="M176.36,419.63V362.86h11.92v56.77H176.36Z" transform="translate(-41.46 -341.59)"/><path class="cls-2" d="M229.2,372.09H211.15v13h14.46v9.31H211.15v25.24H199.72V362.86h30.79Z" transform="translate(-41.46 -341.59)"/><path class="cls-2" d="M264.82,419.63l-4-13.48H244.15l-4,13.48H228.22l18.62-56.93h12.33l17.89,56.93H264.82Zm-9.88-34.39-2.29-10c-0.33,1.31-1.71,7.19-2.7,10.95-1.06,4.08-1.8,6.78-3,10.54H258C257.63,395.45,255.75,389.16,254.93,385.24Z" transform="translate(-41.46 -341.59)"/><path class="cls-2" d="M176.61,458.84V433.94h4.25v24.91h-4.25Z" transform="translate(-41.46 -341.59)"/><path class="cls-2" d="M196.23,458.84V446.75c0-2.48-.58-3.17-2.09-3.17a6.6,6.6,0,0,0-4,2.05v13.21h-3.89V445.45a10.77,10.77,0,0,0-.68-4.32l3.6-1a5.32,5.32,0,0,1,.65,2.59c1.94-1.66,3.64-2.52,5.58-2.52,2.81,0,4.75,1.69,4.75,5v13.61h-3.92Z" transform="translate(-41.46 -341.59)"/><path class="cls-2" d="M210.91,459.35a14.68,14.68,0,0,1-7-2l1.4-2.84a12.72,12.72,0,0,0,5.9,1.91,2.66,2.66,0,0,0,3-2.56c0-1.4-.9-2.12-3-2.56l-2.2-.47c-2.74-.58-4.36-2.45-4.36-5,0-3.42,2.74-5.8,6.77-5.8a12.5,12.5,0,0,1,6,1.58l-1.3,2.74a9.24,9.24,0,0,0-4.46-1.33c-1.69,0-2.77.94-2.77,2.34,0,1.12.61,1.69,2.45,2.16l2.27,0.58c3.67,0.94,4.64,3,4.64,5.07C218.29,456.83,215.31,459.35,210.91,459.35Z" transform="translate(-41.46 -341.59)"/><path class="cls-2" d="M226.82,459.31c-3.53,0-4.75-2.09-4.75-4.68V443.37h-2v-2.74h2a36.2,36.2,0,0,1,.18-4.5l4.07-1a50.37,50.37,0,0,0-.32,5.47h4.36l-1,2.74H226v10.22c0,2.27.5,2.91,2.23,2.91a4.61,4.61,0,0,0,1.69-.36l0.5,2.38A8.4,8.4,0,0,1,226.82,459.31Z" transform="translate(-41.46 -341.59)"/><path class="cls-2" d="M235.61,437.93a2.58,2.58,0,0,1-2.56-2.63A2.61,2.61,0,1,1,235.61,437.93Zm-2,20.91V440.92l4-.72v18.64h-4Z" transform="translate(-41.46 -341.59)"/><path class="cls-2" d="M247.77,459.31c-3.53,0-4.75-2.09-4.75-4.68V443.37h-2v-2.74h2a36.2,36.2,0,0,1,.18-4.5l4.07-1a50.37,50.37,0,0,0-.32,5.47h4.36l-1,2.74h-3.35v10.22c0,2.27.5,2.91,2.23,2.91a4.61,4.61,0,0,0,1.69-.36l0.5,2.38A8.4,8.4,0,0,1,247.77,459.31Z" transform="translate(-41.46 -341.59)"/><path class="cls-2" d="M266.35,459.42a4,4,0,0,1-1.58-2.27,6.61,6.61,0,0,1-5.18,2.23,5.77,5.77,0,0,1-4.54-1.8c-0.72-.86-1-2.05-1-4.32V440.92l3.89-.72v12.2c0,2.27.32,3.92,2.66,3.92a4.41,4.41,0,0,0,3.56-2.37v-13l3.82-.72v13.71c0,2.45.9,3.46,1.12,3.64Z" transform="translate(-41.46 -341.59)"/><path class="cls-2" d="M278.12,459.31c-3.53,0-4.75-2.09-4.75-4.68V443.37h-2v-2.74h2a36.2,36.2,0,0,1,.18-4.5l4.07-1a50.37,50.37,0,0,0-.32,5.47h4.36l-1,2.74h-3.35v10.22c0,2.27.5,2.91,2.23,2.91a4.61,4.61,0,0,0,1.69-.36l0.5,2.38A8.4,8.4,0,0,1,278.12,459.31Z" transform="translate(-41.46 -341.59)"/><path class="cls-2" d="M300.26,436a4.72,4.72,0,0,0-2.2-.65c-1.37,0-2.23.94-2.23,2.56v2.77h4.75l-1,2.74h-3.71v15.48h-3.92V443.37h-1.69v-2.74H292a24.51,24.51,0,0,1-.11-2.7c0-3.78,2.3-5.54,5.54-5.54a7.91,7.91,0,0,1,4.1,1Z" transform="translate(-41.46 -341.59)"/><path class="cls-2" d="M314.58,459.42a4,4,0,0,1-1.58-2.27,6.61,6.61,0,0,1-5.18,2.23,5.77,5.77,0,0,1-4.54-1.8c-0.72-.86-1-2.05-1-4.32V440.92l3.89-.72v12.2c0,2.27.32,3.92,2.66,3.92a4.41,4.41,0,0,0,3.56-2.37v-13l3.82-.72v13.71c0,2.45.9,3.46,1.12,3.64Zm-9.07-20.73a2.52,2.52,0,1,1,2.41-2.52A2.48,2.48,0,0,1,305.51,438.69Zm7.52,0a2.52,2.52,0,1,1,2.41-2.52A2.48,2.48,0,0,1,313,438.69Z" transform="translate(-41.46 -341.59)"/><path class="cls-2" d="M329.74,444.09a3,3,0,0,0-1.12-.25,3.59,3.59,0,0,0-3.42,2.7v12.31h-4V446a14.48,14.48,0,0,0-.65-4.9l3.64-.94a6.41,6.41,0,0,1,.68,2.88c1.44-2,2.88-2.91,4.64-2.91a3,3,0,0,1,1.4.29Z" transform="translate(-41.46 -341.59)"/><path class="cls-2" d="M353.93,458.84l-2-6.55h-8.06l-2,6.55h-4.28l8.17-24.94h4.79l8,24.94h-4.54ZM348,438h0c-0.5,1.84-2.63,9.32-3.13,10.8H351C350.73,448.3,348.21,439,348,438Z" transform="translate(-41.46 -341.59)"/><path class="cls-2" d="M369.41,444.09a3,3,0,0,0-1.12-.25,3.59,3.59,0,0,0-3.42,2.7v12.31h-4V446a14.48,14.48,0,0,0-.65-4.9l3.64-.94a6.41,6.41,0,0,1,.68,2.88c1.44-2,2.88-2.91,4.64-2.91a3,3,0,0,1,1.4.29Z" transform="translate(-41.46 -341.59)"/><path class="cls-2" d="M380.89,459.24a5.51,5.51,0,0,1-4.43-2.09,4.48,4.48,0,0,1-.5,1.69h-3.63a10.23,10.23,0,0,0,.47-4.07V437.61a14.54,14.54,0,0,0-.47-4.39l4.1-.9a19.61,19.61,0,0,1,.29,3.64v4.25a8.9,8.9,0,0,1-.11,1.73l0.14,0a5.78,5.78,0,0,1,4.32-1.76c4.36,0,7.09,3.56,7.09,9.25S385.14,459.24,380.89,459.24Zm-0.68-15.69a4.35,4.35,0,0,0-3.46,1.83v8.89a4.73,4.73,0,0,0,3.38,1.58c2.48,0,3.56-1.8,3.56-6.37C383.7,446.21,383.05,443.55,380.21,443.55Z" transform="translate(-41.46 -341.59)"/><path class="cls-2" d="M395.76,450.82v0.29c0,2.52.94,5.18,4.5,5.18a6.71,6.71,0,0,0,4.54-1.8l1.55,2.41a9.84,9.84,0,0,1-6.55,2.41c-5.15,0-8.39-3.71-8.39-9.54,0-3.2.68-5.33,2.27-7.13a6.93,6.93,0,0,1,5.58-2.45,7,7,0,0,1,5,1.87c1.58,1.44,2.37,3.67,2.37,7.92v0.83H395.76Zm3.49-7.63c-2.23,0-3.46,1.76-3.46,4.72h6.73C402.53,445,401.23,443.19,399.25,443.19Z" transform="translate(-41.46 -341.59)"/><path class="cls-2" d="M412.57,437.93A2.58,2.58,0,0,1,410,435.3,2.61,2.61,0,1,1,412.57,437.93Zm-2,20.91V440.92l4-.72v18.64h-4Z" transform="translate(-41.46 -341.59)"/><path class="cls-2" d="M424.74,459.31c-3.53,0-4.75-2.09-4.75-4.68V443.37h-2v-2.74h2a36.2,36.2,0,0,1,.18-4.5l4.07-1a50.37,50.37,0,0,0-.32,5.47h4.36l-1,2.74h-3.35v10.22c0,2.27.5,2.91,2.23,2.91a4.61,4.61,0,0,0,1.69-.36l0.5,2.38A8.4,8.4,0,0,1,424.74,459.31Z" transform="translate(-41.46 -341.59)"/><path class="cls-2" d="M436.91,459.35a14.68,14.68,0,0,1-7-2l1.4-2.84a12.72,12.72,0,0,0,5.9,1.91,2.66,2.66,0,0,0,3-2.56c0-1.4-.9-2.12-3-2.56l-2.2-.47c-2.74-.58-4.36-2.45-4.36-5,0-3.42,2.74-5.8,6.77-5.8a12.51,12.51,0,0,1,6,1.58l-1.3,2.74A9.24,9.24,0,0,0,437.7,443c-1.69,0-2.77.94-2.77,2.34,0,1.12.61,1.69,2.45,2.16l2.27,0.58c3.67,0.94,4.64,3,4.64,5.07C444.28,456.83,441.3,459.35,436.91,459.35Z" transform="translate(-41.46 -341.59)"/><path class="cls-2" d="M453.25,459.35a14.68,14.68,0,0,1-7-2l1.4-2.84a12.72,12.72,0,0,0,5.9,1.91,2.66,2.66,0,0,0,3-2.56c0-1.4-.9-2.12-3-2.56l-2.2-.47c-2.74-.58-4.36-2.45-4.36-5,0-3.42,2.74-5.8,6.77-5.8a12.5,12.5,0,0,1,6,1.58l-1.3,2.74A9.24,9.24,0,0,0,454,443c-1.69,0-2.77.94-2.77,2.34,0,1.12.61,1.69,2.45,2.16l2.27,0.58c3.67,0.94,4.64,3,4.64,5.07C460.63,456.83,457.64,459.35,453.25,459.35Z" transform="translate(-41.46 -341.59)"/><path class="cls-2" d="M471.25,459.31c-5,0-7.74-3.49-7.74-9.36,0-6.62,4-9.79,8-9.79a6.63,6.63,0,0,1,5,2l-2,2.63a4.48,4.48,0,0,0-3.06-1.4,3.1,3.1,0,0,0-2.88,1.84,12.31,12.31,0,0,0-.76,5.08c0,2.48.4,4.07,1.22,5a3.2,3.2,0,0,0,2.41,1,5.24,5.24,0,0,0,3.67-1.8l1.87,2.41A7.58,7.58,0,0,1,471.25,459.31Z" transform="translate(-41.46 -341.59)"/><path class="cls-2" d="M491.19,458.84V446.46c0-2.27-.79-2.91-2.3-2.91a6.74,6.74,0,0,0-4.39,2.23v13.07h-4V437.17a18.79,18.79,0,0,0-.36-4l4-.86a19.55,19.55,0,0,1,.36,4.28v3.89c0,1-.07,1.87-0.07,2.05A8.19,8.19,0,0,1,490,440.2a4.92,4.92,0,0,1,4.43,2.23A7,7,0,0,1,495,446v12.85h-3.85Z" transform="translate(-41.46 -341.59)"/><path class="cls-2" d="M512.57,459.42a4,4,0,0,1-1.58-2.27,6.61,6.61,0,0,1-5.18,2.23,5.77,5.77,0,0,1-4.54-1.8c-0.72-.86-1-2.05-1-4.32V440.92l3.89-.72v12.2c0,2.27.32,3.92,2.66,3.92a4.41,4.41,0,0,0,3.56-2.37v-13l3.82-.72v13.71c0,2.45.9,3.46,1.12,3.64Z" transform="translate(-41.46 -341.59)"/><path class="cls-2" d="M524.34,459.31c-3.53,0-4.75-2.09-4.75-4.68V443.37h-2v-2.74h2a36.2,36.2,0,0,1,.18-4.5l4.07-1a50.37,50.37,0,0,0-.32,5.47h4.36l-1,2.74h-3.35v10.22c0,2.27.5,2.91,2.23,2.91a4.61,4.61,0,0,0,1.69-.36l0.5,2.38A8.4,8.4,0,0,1,524.34,459.31Z" transform="translate(-41.46 -341.59)"/><path class="cls-2" d="M542.38,458.84H529.53v-2.63l9.14-12.78h-8.42v-2.81h12.89v2.81l-8.64,12.63h9Z" transform="translate(-41.46 -341.59)"/><path class="cls-2" d="M565.49,458.84a4.48,4.48,0,0,1-.32-1.4,6,6,0,0,1-4.46,1.8c-4.64,0-7.45-3.64-7.45-9.32s3.17-9.61,7.56-9.61a5.15,5.15,0,0,1,3.92,1.66c0-.29-0.11-1.58-0.11-3v-6.66l3.92,0.61v19.58c0,3.6.22,5.44,0.58,6.33h-3.64ZM564.62,445a4.32,4.32,0,0,0-3.31-1.48c-2.52,0-3.67,2-3.67,6.41,0,4,.79,6,3.78,6a3.79,3.79,0,0,0,3.2-1.73V445Z" transform="translate(-41.46 -341.59)"/><path class="cls-2" d="M577.22,450.82v0.29c0,2.52.94,5.18,4.5,5.18a6.71,6.71,0,0,0,4.54-1.8l1.55,2.41a9.84,9.84,0,0,1-6.55,2.41c-5.15,0-8.39-3.71-8.39-9.54,0-3.2.68-5.33,2.27-7.13a6.93,6.93,0,0,1,5.58-2.45,7,7,0,0,1,5,1.87c1.58,1.44,2.37,3.67,2.37,7.92v0.83H577.22Zm3.49-7.63c-2.23,0-3.45,1.76-3.45,4.72H584C584,445,582.7,443.19,580.71,443.19Z" transform="translate(-41.46 -341.59)"/><path class="cls-2" d="M600.55,444.09a3,3,0,0,0-1.12-.25,3.59,3.59,0,0,0-3.42,2.7v12.31h-4V446a14.48,14.48,0,0,0-.65-4.9l3.64-.94a6.41,6.41,0,0,1,.68,2.88c1.44-2,2.88-2.91,4.64-2.91a3,3,0,0,1,1.4.29Z" transform="translate(-41.46 -341.59)"/><path class="cls-2" d="M191.65,493.35c-2.09,2.66-4.25,3.49-8.89,3.49h-6.16V471.93h5.18c4.68,0,7.45.86,9.79,3.53,1.84,2.12,2.7,5.11,2.7,9A14.06,14.06,0,0,1,191.65,493.35Zm-3.56-16c-1.15-1.58-2.45-2.16-4.68-2.16h-2.63v18.25h2.74c4.39,0,6.16-2.92,6.16-8.57C189.67,481.69,189.39,479.13,188.09,477.37Z" transform="translate(-41.46 -341.59)"/><path class="cls-2" d="M201.88,488.81v0.29c0,2.52.94,5.18,4.5,5.18a6.72,6.72,0,0,0,4.54-1.8l1.55,2.41a9.84,9.84,0,0,1-6.55,2.41c-5.15,0-8.39-3.71-8.39-9.54,0-3.2.68-5.33,2.27-7.13a6.93,6.93,0,0,1,5.58-2.45,7,7,0,0,1,5,1.87c1.58,1.44,2.38,3.67,2.38,7.92v0.83H201.88Zm3.49-7.63c-2.23,0-3.45,1.76-3.45,4.72h6.73C208.65,482.95,207.35,481.18,205.37,481.18Z" transform="translate(-41.46 -341.59)"/><path class="cls-2" d="M228.84,497.42a4,4,0,0,1-1.58-2.27,6.61,6.61,0,0,1-5.18,2.23,5.77,5.77,0,0,1-4.54-1.8c-0.72-.86-1-2.05-1-4.32V478.92l3.89-.72v12.2c0,2.27.32,3.92,2.66,3.92a4.41,4.41,0,0,0,3.56-2.38v-13l3.82-.72v13.71c0,2.45.9,3.46,1.12,3.64Z" transform="translate(-41.46 -341.59)"/><path class="cls-2" d="M240.61,497.31c-3.53,0-4.75-2.09-4.75-4.68V481.36h-2v-2.74h2a36.21,36.21,0,0,1,.18-4.5l4.07-1a50.39,50.39,0,0,0-.32,5.47h4.36l-1,2.74h-3.35v10.22c0,2.27.5,2.92,2.23,2.92a4.61,4.61,0,0,0,1.69-.36l0.5,2.37A8.4,8.4,0,0,1,240.61,497.31Z" transform="translate(-41.46 -341.59)"/><path class="cls-2" d="M252.78,497.35a14.69,14.69,0,0,1-7-2l1.4-2.84a12.73,12.73,0,0,0,5.9,1.91,2.66,2.66,0,0,0,3-2.56c0-1.4-.9-2.12-3-2.55l-2.2-.47c-2.74-.58-4.36-2.45-4.36-5,0-3.42,2.74-5.8,6.77-5.8a12.51,12.51,0,0,1,6,1.58l-1.3,2.74a9.24,9.24,0,0,0-4.46-1.33c-1.69,0-2.77.94-2.77,2.34,0,1.12.61,1.69,2.45,2.16l2.27,0.58c3.67,0.94,4.64,3,4.64,5.08C260.16,494.83,257.17,497.35,252.78,497.35Z" transform="translate(-41.46 -341.59)"/><path class="cls-2" d="M270.78,497.31c-5,0-7.74-3.49-7.74-9.36,0-6.62,4-9.79,8-9.79a6.63,6.63,0,0,1,5,2l-2,2.63a4.48,4.48,0,0,0-3.06-1.4,3.1,3.1,0,0,0-2.88,1.84,12.32,12.32,0,0,0-.76,5.08c0,2.48.4,4.07,1.22,5a3.2,3.2,0,0,0,2.41,1,5.25,5.25,0,0,0,3.67-1.8l1.87,2.41A7.59,7.59,0,0,1,270.78,497.31Z" transform="translate(-41.46 -341.59)"/><path class="cls-2" d="M290.72,496.84V484.46c0-2.27-.79-2.91-2.3-2.91a6.74,6.74,0,0,0-4.39,2.23v13.07h-4V475.17a18.78,18.78,0,0,0-.36-4l4-.86a19.55,19.55,0,0,1,.36,4.28v3.89c0,1-.07,1.87-0.07,2.05a8.19,8.19,0,0,1,5.58-2.38,4.93,4.93,0,0,1,4.43,2.23,7,7,0,0,1,.61,3.56v12.85h-3.85Z" transform="translate(-41.46 -341.59)"/><path class="cls-2" d="M303.25,488.81v0.29c0,2.52.94,5.18,4.5,5.18a6.72,6.72,0,0,0,4.54-1.8l1.55,2.41a9.84,9.84,0,0,1-6.55,2.41c-5.15,0-8.39-3.71-8.39-9.54,0-3.2.68-5.33,2.27-7.13a6.93,6.93,0,0,1,5.58-2.45,7,7,0,0,1,5,1.87c1.58,1.44,2.38,3.67,2.38,7.92v0.83H303.25Zm3.49-7.63c-2.23,0-3.46,1.76-3.46,4.72H310C310,482.95,308.72,481.18,306.74,481.18Z" transform="translate(-41.46 -341.59)"/><path class="cls-2" d="M328,496.84V484.75c0-2.48-.58-3.17-2.09-3.17a6.6,6.6,0,0,0-4,2.05v13.21h-3.89V483.45a10.77,10.77,0,0,0-.68-4.32l3.6-1a5.32,5.32,0,0,1,.65,2.59c1.94-1.66,3.64-2.52,5.58-2.52,2.81,0,4.75,1.69,4.75,5v13.61H328Z" transform="translate(-41.46 -341.59)"/><path class="cls-2" d="M354.58,497.17c-3.49,0-6.19-1.12-8.13-3.53s-2.77-5.15-2.77-9.07c0-5.11,1.55-8.67,4.68-11a9.61,9.61,0,0,1,6.16-1.94,11.06,11.06,0,0,1,7.42,2.63l-2.09,2.59a8.17,8.17,0,0,0-5.26-1.91c-4.61,0-6.3,4-6.3,9.86,0,3.49.65,5.94,1.84,7.34a6.23,6.23,0,0,0,4.71,1.87,6.82,6.82,0,0,0,3.31-.79v-6.48h-4.25l-0.58-3.38h9v11.73A15.16,15.16,0,0,1,354.58,497.17Z" transform="translate(-41.46 -341.59)"/><path class="cls-2" d="M370.67,488.81v0.29c0,2.52.94,5.18,4.5,5.18a6.72,6.72,0,0,0,4.54-1.8l1.55,2.41a9.84,9.84,0,0,1-6.55,2.41c-5.15,0-8.39-3.71-8.39-9.54,0-3.2.68-5.33,2.27-7.13a6.93,6.93,0,0,1,5.58-2.45,7,7,0,0,1,5,1.87c1.58,1.44,2.38,3.67,2.38,7.92v0.83H370.67Zm3.49-7.63c-2.23,0-3.46,1.76-3.46,4.72h6.73C377.44,482.95,376.14,481.18,374.16,481.18Z" transform="translate(-41.46 -341.59)"/><path class="cls-2" d="M390.68,497.35a14.69,14.69,0,0,1-7-2l1.4-2.84a12.73,12.73,0,0,0,5.9,1.91,2.66,2.66,0,0,0,3-2.56c0-1.4-.9-2.12-3-2.55l-2.2-.47c-2.74-.58-4.36-2.45-4.36-5,0-3.42,2.74-5.8,6.77-5.8a12.51,12.51,0,0,1,6,1.58l-1.3,2.74a9.24,9.24,0,0,0-4.46-1.33c-1.69,0-2.77.94-2.77,2.34,0,1.12.61,1.69,2.45,2.16l2.27,0.58c3.67,0.94,4.64,3,4.64,5.08C398.06,494.83,395.08,497.35,390.68,497.35Z" transform="translate(-41.46 -341.59)"/><path class="cls-2" d="M405.3,488.81v0.29c0,2.52.94,5.18,4.5,5.18a6.72,6.72,0,0,0,4.54-1.8l1.55,2.41a9.84,9.84,0,0,1-6.55,2.41c-5.15,0-8.39-3.71-8.39-9.54,0-3.2.68-5.33,2.27-7.13a6.93,6.93,0,0,1,5.58-2.45,7,7,0,0,1,5,1.87c1.58,1.44,2.38,3.67,2.38,7.92v0.83H405.3Zm3.49-7.63c-2.23,0-3.46,1.76-3.46,4.72h6.73C412.07,482.95,410.77,481.18,408.79,481.18Z" transform="translate(-41.46 -341.59)"/><path class="cls-2" d="M424.88,497.31c-3.53,0-4.75-2.09-4.75-4.68V481.36h-2v-2.74h2a36.19,36.19,0,0,1,.18-4.5l4.07-1a50.39,50.39,0,0,0-.32,5.47h4.36l-1,2.74H424v10.22c0,2.27.5,2.92,2.23,2.92a4.61,4.61,0,0,0,1.69-.36l0.5,2.37A8.4,8.4,0,0,1,424.88,497.31Z" transform="translate(-41.46 -341.59)"/><path class="cls-2" d="M442.92,496.84H430.07v-2.63l9.14-12.78h-8.42v-2.81h12.89v2.81L435,494.07h9Z" transform="translate(-41.46 -341.59)"/><path class="cls-2" d="M451.48,497.24c-4,0-4-3.6-4-5.15V476.58a29.5,29.5,0,0,0-.36-5.33l4.07-.9a22,22,0,0,1,.32,5v15.44c0,2.45.11,2.84,0.4,3.28a1.11,1.11,0,0,0,1.3.29l0.65,2.45A6.21,6.21,0,0,1,451.48,497.24Z" transform="translate(-41.46 -341.59)"/><path class="cls-2" d="M458.9,475.93a2.58,2.58,0,0,1-2.56-2.63A2.61,2.61,0,1,1,458.9,475.93Zm-2,20.91V478.92l4-.72v18.65h-4Z" transform="translate(-41.46 -341.59)"/><path class="cls-2" d="M473,497.31c-5,0-7.74-3.49-7.74-9.36,0-6.62,4-9.79,8-9.79a6.63,6.63,0,0,1,5,2l-2,2.63a4.48,4.48,0,0,0-3.06-1.4,3.1,3.1,0,0,0-2.88,1.84,12.32,12.32,0,0,0-.76,5.08c0,2.48.4,4.07,1.22,5a3.2,3.2,0,0,0,2.41,1,5.25,5.25,0,0,0,3.67-1.8l1.87,2.41A7.59,7.59,0,0,1,473,497.31Z" transform="translate(-41.46 -341.59)"/><path class="cls-2" d="M492.92,496.84V484.46c0-2.27-.79-2.91-2.3-2.91a6.74,6.74,0,0,0-4.39,2.23v13.07h-4V475.17a18.78,18.78,0,0,0-.36-4l4-.86a19.55,19.55,0,0,1,.36,4.28v3.89c0,1-.07,1.87-0.07,2.05a8.19,8.19,0,0,1,5.58-2.38,4.93,4.93,0,0,1,4.43,2.23,7,7,0,0,1,.61,3.56v12.85h-3.85Z" transform="translate(-41.46 -341.59)"/><path class="cls-2" d="M505.44,488.81v0.29c0,2.52.94,5.18,4.5,5.18a6.72,6.72,0,0,0,4.54-1.8L516,494.9a9.84,9.84,0,0,1-6.55,2.41c-5.15,0-8.39-3.71-8.39-9.54,0-3.2.68-5.33,2.27-7.13a6.93,6.93,0,0,1,5.58-2.45,7,7,0,0,1,5,1.87c1.58,1.44,2.38,3.67,2.38,7.92v0.83H505.44Zm3.49-7.63c-2.23,0-3.45,1.76-3.45,4.72h6.73C512.21,482.95,510.92,481.18,508.94,481.18Z" transform="translate(-41.46 -341.59)"/><path class="cls-2" d="M530.25,496.84V484.75c0-2.48-.58-3.17-2.09-3.17a6.6,6.6,0,0,0-4,2.05v13.21h-3.89V483.45a10.77,10.77,0,0,0-.68-4.32l3.6-1a5.32,5.32,0,0,1,.65,2.59c1.94-1.66,3.64-2.52,5.58-2.52,2.81,0,4.75,1.69,4.75,5v13.61h-3.92Z" transform="translate(-41.46 -341.59)"/><path class="cls-2" d="M555.37,497.27c-6.55,0-8.6-3.38-8.6-7.38v-18h4.18v16.74c0,3.82,1.37,5.08,4.43,5.08s4.5-1.76,4.5-5.08V471.93H564v17.93C564,494.43,560.84,497.27,555.37,497.27Z" transform="translate(-41.46 -341.59)"/><path class="cls-2" d="M579.2,496.84V484.75c0-2.48-.58-3.17-2.09-3.17a6.6,6.6,0,0,0-4,2.05v13.21h-3.89V483.45a10.77,10.77,0,0,0-.68-4.32l3.6-1a5.32,5.32,0,0,1,.65,2.59c1.94-1.66,3.64-2.52,5.58-2.52,2.81,0,4.75,1.69,4.75,5v13.61H579.2Z" transform="translate(-41.46 -341.59)"/><path class="cls-2" d="M596.84,473.95a4.7,4.7,0,0,0-2.2-.65c-1.37,0-2.23.94-2.23,2.56v2.77h4.75l-1,2.74h-3.71v15.48h-3.92V481.36h-1.69v-2.74h1.76a24.46,24.46,0,0,1-.11-2.7c0-3.78,2.3-5.54,5.54-5.54a7.91,7.91,0,0,1,4.1,1Z" transform="translate(-41.46 -341.59)"/><path class="cls-2" d="M611,497.6a4.27,4.27,0,0,1-2.48-2.45,6.19,6.19,0,0,1-5,2.23c-4.18,0-6-2.3-6-5.47,0-4.21,3.17-6.33,9-6.33h1.22v-1c0-2.09-.36-3.2-2.52-3.2a10.72,10.72,0,0,0-5.44,2.09l-1.76-2.84a13.66,13.66,0,0,1,7.74-2.48c2.84,0,4.75,1,5.54,3,0.32,0.79.32,1.76,0.29,4.46l-0.07,5.22c0,2.45.18,3.24,1.58,4.21Zm-4.1-9.36c-4,0-5.15,1.15-5.15,3.46,0,1.73.94,2.81,2.52,2.81a4.12,4.12,0,0,0,3.28-1.91l0.07-4.32C607.5,488.28,607.1,488.24,606.85,488.24Z" transform="translate(-41.46 -341.59)"/><path class="cls-2" d="M620.85,497.24c-4,0-4-3.6-4-5.15V476.58a29.5,29.5,0,0,0-.36-5.33l4.07-.9a22,22,0,0,1,.32,5v15.44c0,2.45.11,2.84,0.4,3.28a1.11,1.11,0,0,0,1.3.29l0.65,2.45A6.21,6.21,0,0,1,620.85,497.24Z" transform="translate(-41.46 -341.59)"/><path class="cls-2" d="M629.92,497.24c-4,0-4-3.6-4-5.15V476.58a29.5,29.5,0,0,0-.36-5.33l4.07-.9a22,22,0,0,1,.32,5v15.44c0,2.45.11,2.84,0.4,3.28a1.11,1.11,0,0,0,1.3.29l0.65,2.45A6.21,6.21,0,0,1,629.92,497.24Z" transform="translate(-41.46 -341.59)"/><path class="cls-2" d="M642.7,496.91h-3.49l-6.55-18.14,4.07-.58,3.17,9.83c0.43,1.33.9,3.17,1.12,4.07h0.07a34,34,0,0,1,1.08-4.21l3-9.25h4.14Z" transform="translate(-41.46 -341.59)"/><path class="cls-2" d="M654.94,488.81v0.29c0,2.52.94,5.18,4.5,5.18a6.72,6.72,0,0,0,4.54-1.8l1.55,2.41a9.84,9.84,0,0,1-6.55,2.41c-5.15,0-8.39-3.71-8.39-9.54,0-3.2.68-5.33,2.27-7.13a6.93,6.93,0,0,1,5.58-2.45,7,7,0,0,1,5,1.87c1.58,1.44,2.38,3.67,2.38,7.92v0.83H654.94Zm3.49-7.63c-2.23,0-3.46,1.76-3.46,4.72h6.73C661.71,482.95,660.41,481.18,658.43,481.18Z" transform="translate(-41.46 -341.59)"/><path class="cls-2" d="M678.27,482.08a3,3,0,0,0-1.12-.25,3.59,3.59,0,0,0-3.42,2.7v12.31h-4V484a14.48,14.48,0,0,0-.65-4.9l3.64-.94a6.41,6.41,0,0,1,.68,2.88c1.44-2,2.88-2.92,4.64-2.92a3,3,0,0,1,1.4.29Z" transform="translate(-41.46 -341.59)"/><path class="cls-2" d="M686.83,497.35a14.69,14.69,0,0,1-7-2l1.4-2.84a12.73,12.73,0,0,0,5.9,1.91,2.66,2.66,0,0,0,3-2.56c0-1.4-.9-2.12-3-2.55l-2.2-.47c-2.74-.58-4.36-2.45-4.36-5,0-3.42,2.74-5.8,6.77-5.8a12.51,12.51,0,0,1,6,1.58l-1.3,2.74a9.24,9.24,0,0,0-4.46-1.33c-1.69,0-2.77.94-2.77,2.34,0,1.12.61,1.69,2.45,2.16l2.27,0.58c3.67,0.94,4.64,3,4.64,5.08C694.21,494.83,691.23,497.35,686.83,497.35Z" transform="translate(-41.46 -341.59)"/><path class="cls-2" d="M699.79,475.93a2.58,2.58,0,0,1-2.56-2.63A2.61,2.61,0,1,1,699.79,475.93Zm-2,20.91V478.92l4-.72v18.65h-4Z" transform="translate(-41.46 -341.59)"/><path class="cls-2" d="M713.87,497.31c-5,0-7.74-3.49-7.74-9.36,0-6.62,4-9.79,8-9.79a6.63,6.63,0,0,1,5,2l-2,2.63a4.48,4.48,0,0,0-3.06-1.4,3.1,3.1,0,0,0-2.88,1.84,12.31,12.31,0,0,0-.76,5.08c0,2.48.4,4.07,1.22,5a3.2,3.2,0,0,0,2.41,1,5.25,5.25,0,0,0,3.67-1.8l1.87,2.41A7.59,7.59,0,0,1,713.87,497.31Z" transform="translate(-41.46 -341.59)"/><path class="cls-2" d="M733.81,496.84V484.46c0-2.27-.79-2.91-2.3-2.91a6.74,6.74,0,0,0-4.39,2.23v13.07h-4V475.17a18.78,18.78,0,0,0-.36-4l4-.86a19.55,19.55,0,0,1,.36,4.28v3.89c0,1-.07,1.87-0.07,2.05a8.19,8.19,0,0,1,5.58-2.38,4.92,4.92,0,0,1,4.43,2.23,6.93,6.93,0,0,1,.61,3.56v12.85h-3.85Z" transform="translate(-41.46 -341.59)"/><path class="cls-2" d="M746.34,488.81v0.29c0,2.52.94,5.18,4.5,5.18a6.72,6.72,0,0,0,4.54-1.8l1.55,2.41a9.84,9.84,0,0,1-6.55,2.41c-5.15,0-8.39-3.71-8.39-9.54,0-3.2.68-5.33,2.27-7.13a6.93,6.93,0,0,1,5.58-2.45,7,7,0,0,1,5,1.87c1.58,1.44,2.38,3.67,2.38,7.92v0.83H746.34Zm3.49-7.63c-2.23,0-3.46,1.76-3.46,4.72h6.73C753.11,482.95,751.81,481.18,749.83,481.18Z" transform="translate(-41.46 -341.59)"/><path class="cls-2" d="M769.66,482.08a3,3,0,0,0-1.12-.25,3.59,3.59,0,0,0-3.42,2.7v12.31h-4V484a14.48,14.48,0,0,0-.65-4.9l3.64-.94a6.41,6.41,0,0,1,.68,2.88c1.44-2,2.88-2.92,4.64-2.92a3,3,0,0,1,1.4.29Z" transform="translate(-41.46 -341.59)"/><path class="cls-2" d="M785.18,497.42a4,4,0,0,1-1.58-2.27,6.61,6.61,0,0,1-5.18,2.23,5.77,5.77,0,0,1-4.54-1.8c-0.72-.86-1-2.05-1-4.32V478.92l3.89-.72v12.2c0,2.27.32,3.92,2.66,3.92a4.41,4.41,0,0,0,3.56-2.38v-13l3.82-.72v13.71c0,2.45.9,3.46,1.12,3.64Z" transform="translate(-41.46 -341.59)"/><path class="cls-2" d="M801.81,496.84V484.75c0-2.48-.58-3.17-2.09-3.17a6.6,6.6,0,0,0-4,2.05v13.21h-3.89V483.45a10.77,10.77,0,0,0-.68-4.32l3.6-1a5.32,5.32,0,0,1,.65,2.59c1.94-1.66,3.64-2.52,5.58-2.52,2.81,0,4.75,1.69,4.75,5v13.61h-3.92Z" transform="translate(-41.46 -341.59)"/><path class="cls-2" d="M824.92,481.54a5,5,0,0,1-1.4-.18,4.79,4.79,0,0,1,1.19,3.17c0,3.17-2.63,5.58-6.91,5.58-1.3.47-2.45,1.15-2.45,1.73s0.25,0.76,4.54.76c2.91,0,6,1.48,6,5.18,0,3.89-3.24,6-8.1,6s-8.14-1.55-8.14-5a7.42,7.42,0,0,1,.36-1.94h3.74a3.87,3.87,0,0,0-.29,1.3c0,1.69,1.44,2.63,4,2.63,2.81,0,4.32-1.15,4.32-2.84,0-2-1.66-2.52-5-2.52-4.9,0-6-1-6-2.77s1.51-2.52,3.46-3.13c-2.74-.79-4.14-2.55-4.14-5.15,0-3.71,2.91-6.16,7.27-6.16,2.59,0,4.07.94,5.54,0.94a5.15,5.15,0,0,0,3.31-1.26l1.84,2.48A4.48,4.48,0,0,1,824.92,481.54Zm-7.56-.36a2.84,2.84,0,0,0-3.13,3.17c0,2.09,1.19,3.06,3.13,3.06A3.11,3.11,0,1,0,817.36,481.18Z" transform="translate(-41.46 -341.59)"/></svg>